<svg width="274" height="163" viewBox="0 0 274 163" fill="none" xmlns="http://www.w3.org/2000/svg">
<rect x="1.22656" y="0.5" width="272" height="162" fill="white"/>
<path d="M96.4506 48.144C94.7972 48.144 93.4906 47.6213 92.5306 46.576C91.5812 45.5307 91.1066 44.1227 91.1066 42.352V42.224C91.1066 40.528 91.6132 39.1307 92.6266 38.032C93.6399 36.9333 94.9252 36.384 96.4826 36.384C97.7306 36.384 98.7866 36.7093 99.6506 37.36C100.515 38.0107 101.005 38.9333 101.123 40.128H99.7466C99.4586 38.368 98.3759 37.488 96.4986 37.488C95.3146 37.488 94.3599 37.92 93.6346 38.784C92.9092 39.6373 92.5466 40.7787 92.5466 42.208V42.336C92.5466 43.7973 92.8932 44.944 93.5866 45.776C94.2906 46.5973 95.2559 47.008 96.4826 47.008C97.4319 47.008 98.2106 46.7733 98.8186 46.304C99.4266 45.824 99.7999 45.1253 99.9386 44.208H101.235C101.043 45.4987 100.525 46.48 99.6826 47.152C98.8399 47.8133 97.7626 48.144 96.4506 48.144ZM103.39 48V35.632H104.734V48H103.39ZM107.584 48V39.632H108.912V48H107.584ZM108.832 37.632C108.661 37.8027 108.458 37.888 108.224 37.888C107.989 37.888 107.781 37.8027 107.6 37.632C107.429 37.4613 107.344 37.2533 107.344 37.008C107.344 36.7627 107.429 36.5547 107.6 36.384C107.781 36.2133 107.989 36.128 108.224 36.128C108.458 36.128 108.661 36.2133 108.832 36.384C109.013 36.5547 109.104 36.7627 109.104 37.008C109.104 37.2533 109.013 37.4613 108.832 37.632ZM115.154 48.144C113.959 48.144 112.983 47.76 112.226 46.992C111.479 46.2133 111.106 45.184 111.106 43.904V43.776C111.106 42.5173 111.469 41.488 112.194 40.688C112.93 39.888 113.874 39.488 115.026 39.488C116.093 39.488 116.983 39.8347 117.698 40.528C118.423 41.2107 118.786 42.2507 118.786 43.648V44.08H112.482C112.514 45.04 112.754 45.776 113.202 46.288C113.661 46.7893 114.317 47.04 115.17 47.04C116.482 47.04 117.223 46.5547 117.394 45.584H118.722C118.583 46.4053 118.194 47.04 117.554 47.488C116.914 47.9253 116.114 48.144 115.154 48.144ZM112.53 43.008H117.426C117.309 41.3973 116.509 40.592 115.026 40.592C114.354 40.592 113.799 40.8107 113.362 41.248C112.925 41.6747 112.647 42.2613 112.53 43.008ZM120.924 48V39.632H122.252V40.96C122.454 40.5333 122.79 40.1813 123.26 39.904C123.729 39.6267 124.289 39.488 124.94 39.488C125.857 39.488 126.577 39.76 127.1 40.304C127.622 40.848 127.884 41.7013 127.884 42.864V48H126.556V42.768C126.556 42.032 126.396 41.4933 126.076 41.152C125.756 40.8107 125.26 40.64 124.588 40.64C123.937 40.64 123.382 40.8427 122.924 41.248C122.476 41.6533 122.252 42.2133 122.252 42.928V48H120.924ZM133.13 48.112C132.394 48.112 131.834 47.9147 131.45 47.52C131.066 47.1253 130.874 46.5867 130.874 45.904V40.752H129.674V39.632H130.874V37.728H132.202V39.632H134.154V40.752H132.202V45.776C132.202 46.5867 132.549 46.992 133.242 46.992C133.626 46.992 133.968 46.9333 134.266 46.816V47.936C133.936 48.0533 133.557 48.112 133.13 48.112ZM140.804 48V36.56H142.612L148.18 46.016V36.56H149.508V48H147.908L142.132 38.192V48H140.804ZM154.482 48.144C153.661 48.144 152.989 47.9413 152.466 47.536C151.954 47.12 151.698 46.5013 151.698 45.68C151.698 44.784 152.093 44.128 152.882 43.712C153.682 43.296 154.685 43.088 155.89 43.088H157.09V42.48C157.09 41.808 156.952 41.328 156.674 41.04C156.397 40.7413 155.938 40.592 155.298 40.592C154.146 40.592 153.506 41.0933 153.378 42.096H152.05C152.136 41.2 152.488 40.544 153.106 40.128C153.725 39.7013 154.477 39.488 155.362 39.488C157.4 39.488 158.418 40.4853 158.418 42.48V48H157.09V46.944C156.45 47.744 155.581 48.144 154.482 48.144ZM154.61 47.088C155.336 47.088 155.928 46.912 156.386 46.56C156.856 46.1973 157.09 45.7013 157.09 45.072V44.032H155.938C153.997 44.032 153.026 44.5813 153.026 45.68C153.026 46.6187 153.554 47.088 154.61 47.088ZM161.127 48V39.632H162.455V40.912C162.657 40.496 162.977 40.1547 163.415 39.888C163.863 39.6213 164.375 39.488 164.951 39.488C166.177 39.488 166.993 40.0107 167.399 41.056C167.665 40.544 168.065 40.1547 168.599 39.888C169.143 39.6213 169.697 39.488 170.263 39.488C171.084 39.488 171.756 39.76 172.279 40.304C172.812 40.8373 173.079 41.6747 173.079 42.816V48H171.751V42.72C171.751 41.3333 171.159 40.64 169.975 40.64C169.377 40.64 168.86 40.8373 168.423 41.232C167.985 41.6267 167.767 42.176 167.767 42.88V48H166.439V42.72C166.439 41.3333 165.847 40.64 164.663 40.64C164.065 40.64 163.548 40.8373 163.111 41.232C162.673 41.6267 162.455 42.176 162.455 42.88V48H161.127ZM179.213 48.144C178.019 48.144 177.043 47.76 176.285 46.992C175.539 46.2133 175.165 45.184 175.165 43.904V43.776C175.165 42.5173 175.528 41.488 176.253 40.688C176.989 39.888 177.933 39.488 179.085 39.488C180.152 39.488 181.043 39.8347 181.757 40.528C182.483 41.2107 182.845 42.2507 182.845 43.648V44.08H176.541C176.573 45.04 176.813 45.776 177.261 46.288C177.72 46.7893 178.376 47.04 179.229 47.04C180.541 47.04 181.283 46.5547 181.453 45.584H182.781C182.643 46.4053 182.253 47.04 181.613 47.488C180.973 47.9253 180.173 48.144 179.213 48.144ZM176.589 43.008H181.485C181.368 41.3973 180.568 40.592 179.085 40.592C178.413 40.592 177.859 40.8107 177.421 41.248C176.984 41.6747 176.707 42.2613 176.589 43.008Z" fill="#374754"/>
<g clip-path="url(#clip0)">
<path d="M227.716 107.502L233.07 111.053C231.332 113.599 227.176 117.968 219.99 117.968C211.067 117.968 204.422 111.1 204.422 102.363C204.422 93.0653 211.138 86.7578 219.239 86.7578C227.387 86.7578 231.379 93.2052 232.671 96.6859L233.375 98.4616L212.382 107.105C213.979 110.235 216.468 111.824 219.99 111.824C223.513 111.824 225.955 110.095 227.716 107.502ZM211.255 101.873L225.274 96.0788C224.499 94.1401 222.198 92.7619 219.45 92.7619C215.952 92.7619 211.091 95.8456 211.255 101.873Z" fill="#FF302F"/>
<path d="M194.301 70.8493H201.063V116.543H194.301V70.8489V70.8493Z" fill="#20B15A"/>
<path d="M183.639 87.9722H190.167V115.725C190.167 127.241 183.334 131.984 175.256 131.984C167.648 131.984 163.069 126.891 161.354 122.756L167.342 120.28C168.422 122.826 171.029 125.84 175.256 125.84C180.445 125.84 183.639 122.639 183.639 116.659V114.417H183.404C181.854 116.285 178.896 117.967 175.138 117.967C167.295 117.967 160.109 111.169 160.109 102.409C160.109 93.6021 167.295 86.7344 175.138 86.7344C178.872 86.7344 181.854 88.393 183.404 90.2151H183.639V87.9726V87.9722ZM184.108 102.409C184.108 96.8961 180.422 92.878 175.725 92.878C170.982 92.878 166.99 96.8961 166.99 102.409C166.99 107.852 170.982 111.8 175.725 111.8C180.422 111.824 184.109 107.852 184.109 102.409H184.108Z" fill="#3686F7"/>
<path d="M122.986 102.292C122.986 111.286 115.941 117.897 107.299 117.897C98.6582 117.897 91.6133 111.263 91.6133 102.292C91.6133 93.2519 98.6582 86.6643 107.299 86.6643C115.941 86.6643 122.986 93.2519 122.986 102.292ZM116.129 102.292C116.129 96.6862 112.043 92.8312 107.299 92.8312C102.556 92.8312 98.4701 96.6862 98.4701 102.292C98.4701 107.852 102.556 111.754 107.299 111.754C112.043 111.754 116.129 107.852 116.129 102.292Z" fill="#FF302F"/>
<path d="M157.243 102.363C157.243 111.357 150.199 117.968 141.557 117.968C132.916 117.968 125.871 111.356 125.871 102.363C125.871 93.3222 132.916 86.7578 141.557 86.7578C150.199 86.7578 157.243 93.2989 157.243 102.363ZM150.363 102.363C150.363 96.7564 146.277 92.9014 141.533 92.9014C136.79 92.9014 132.704 96.7564 132.704 102.363C132.704 107.922 136.79 111.824 141.533 111.824C146.3 111.824 150.363 107.899 150.363 102.363Z" fill="#FFBA40"/>
<path d="M65.8287 111.123C55.9894 111.123 48.2875 103.227 48.2875 93.4387C48.2875 83.6508 55.9894 75.7548 65.8287 75.7548C71.1358 75.7548 75.0101 77.8338 77.875 80.4971L82.5952 75.8017C78.6032 71.9939 73.2727 69.0967 65.8287 69.0967C52.35 69.0971 41.0078 80.0302 41.0078 93.4387C41.0078 106.848 52.35 117.781 65.8287 117.781C73.1084 117.781 78.6032 115.398 82.9005 110.959C87.315 106.567 88.6769 100.4 88.6769 95.4011C88.6769 93.8358 88.4892 92.2241 88.2777 91.0327H65.8287V97.5269H81.8202C81.3505 101.592 80.059 104.372 78.1569 106.264C75.8556 108.577 72.2161 111.123 65.8287 111.123Z" fill="#3686F7"/>
</g>
<rect x="1.22656" y="0.5" width="272" height="162" stroke="#D8D8D8"/>
<defs>
<clipPath id="clip0">
<rect width="193" height="63" fill="white" transform="translate(40.7266 69)"/>
</clipPath>
</defs>
</svg>
