<svg width="678" height="514" viewBox="0 0 678 514" fill="none" xmlns="http://www.w3.org/2000/svg">
<g clip-path="url(#clip0)">
<path d="M364.712 514C500.997 514 611.478 482.383 611.478 443.381C611.478 404.379 500.997 372.762 364.712 372.762C228.426 372.762 117.945 404.379 117.945 443.381C117.945 482.383 228.426 514 364.712 514Z" fill="#F5F5F5"/>
<path d="M599.495 168.666C599.495 168.666 555.782 212.45 580.459 277.419C605.136 342.389 538.156 450.436 538.156 450.436C538.156 450.436 538.861 450.33 540.208 450.097C629.989 434.222 674.597 331.372 624.673 254.97C606.137 226.567 590.873 193.242 599.495 168.666Z" fill="#2091F9"/>
<path d="M599.495 168.666C599.495 168.666 574.819 222.337 599.495 266.12C624.172 309.904 603.726 432.781 538.156 450.436" stroke="#535461" stroke-width="2" stroke-miterlimit="10"/>
<path d="M677.343 345.757C677.343 345.757 627.461 337.799 622.914 382.578C618.366 427.358 527.027 433.558 527.027 433.558C527.027 433.558 527.62 433.967 528.741 434.702C604.181 484.305 676.3 466.297 665.435 400.43C661.367 375.947 661.691 351.35 677.343 345.757Z" fill="#2091F9"/>
<path opacity="0.2" d="M677.343 345.757C677.343 345.757 627.461 337.799 622.914 382.578C618.366 427.358 527.027 433.558 527.027 433.558C527.027 433.558 527.62 433.967 528.741 434.702C604.181 484.305 676.3 466.297 665.435 400.43C661.367 375.947 661.691 351.35 677.343 345.757Z" fill="#F5F5F5"/>
<path d="M677.344 345.757C677.344 345.757 638.623 354.274 641.803 389.541C644.983 424.808 584.278 467.067 527 433.544" stroke="#535461" stroke-width="2" stroke-miterlimit="10"/>
<path opacity="0.2" d="M107.245 0.0563924C101.562 -0.141341 95.7386 0.0563921 90.4084 2.04785C75.9056 7.46432 69.0314 25.1826 71.2664 40.5281C73.5014 55.8736 82.6952 69.1994 92.2345 81.4094C101.774 93.6194 112.11 105.674 117.341 120.25C119.95 127.531 121.17 135.687 118.519 142.954C114.429 154.161 102.098 160.425 90.2604 161.724C78.4226 163.024 66.5355 160.489 54.6555 159.606C49.6708 159.253 44.5451 159.21 39.8495 160.849C34.6956 162.635 30.4019 166.279 26.4536 170.079C11.0484 184.979 -1.2829 205.317 0.712379 226.673C2.96853 250.881 23.0906 270.019 45.1303 280.279C52.4276 283.683 60.1478 286.437 66.5708 291.296C83.4919 304.106 87.2921 328.11 85.6071 349.302C83.922 370.495 78.1829 391.709 81.3768 412.718C85.1347 437.152 101.767 459.221 124.201 469.531C144.189 478.712 169.204 478.14 186.951 465.153C195.601 458.797 202.144 450.033 207.834 440.945C216.422 427.233 223.39 412.568 228.598 397.246C231.072 389.965 233.399 382.133 239.173 377.07C242.699 373.955 247.267 372.211 251.787 370.855C265.408 366.774 279.756 365.651 293.504 362.021C307.253 358.391 321.086 351.626 328.559 339.529C339.135 322.361 334.2 300.406 334.249 280.209C334.333 234.194 361.823 192.994 371.969 148.151C375.283 133.491 376.516 117.27 369.113 104.198C364.079 95.279 355.598 88.9233 346.679 83.98C327.079 73.0764 304.799 68.2249 282.879 63.5005C252.414 56.947 215.42 56.0996 191.808 34.8998C169.148 14.5615 138.147 0.0563924 107.245 0.0563924Z" fill="#2091F9"/>
<g opacity="0.5">
<path opacity="0.5" d="M217.754 178.164C217.752 167.073 216.018 156.05 212.614 145.496L204.154 119.219C204.154 118.781 204.154 118.35 204.154 117.919C204.415 101.077 191.308 92.6732 186.26 93.5842C181.092 94.5163 166.751 87.3132 166.751 87.3132V87.5109C165.768 86.3772 164.881 85.163 164.1 83.8811C166.578 82.0736 168.67 79.7882 170.253 77.1593C171.836 74.5304 172.879 71.6111 173.32 68.5728C173.76 65.5345 173.59 62.4386 172.82 59.467C172.049 56.4955 170.692 53.7083 168.831 51.2693C170.381 50.1028 171.563 48.5142 172.236 46.6932C173.407 43.3953 172.511 39.6313 170.607 36.6935C169.798 35.4672 168.852 34.3371 167.787 33.325C166.175 31.7249 164.414 30.2824 162.528 29.0172C157.825 25.7546 152.657 22.9511 147.017 21.9553C146.041 21.7245 145.024 21.7245 144.048 21.9553C143.201 22.2977 142.395 22.7336 141.644 23.2547C137.781 25.4581 132.972 24.5047 128.516 24.2716C124.06 24.0386 118.646 25.2886 117.235 29.4763C116.798 30.7686 116.827 32.1668 116.53 33.4945C115.825 36.743 113.322 39.264 111.391 41.9688C109.459 44.6735 108.013 48.3245 109.621 51.2622C110.171 52.2509 111.031 53.1619 111.031 54.2918C111.031 55.1039 110.552 55.8313 110.326 56.6081C109.84 58.3735 110.756 60.139 112.166 61.4172C112.774 62.0734 113.489 62.6203 114.281 63.0344C116.516 64.1784 119.09 64.5315 121.367 65.5908C122.504 66.1255 123.547 66.841 124.455 67.7094C125.568 68.8763 126.438 70.2534 127.014 71.7604C127.59 73.2675 127.861 74.8743 127.811 76.4873L128.284 76.5367C128.284 76.678 128.284 76.8122 128.284 76.9534C128.777 77.0099 129.299 77.0593 129.813 77.0805C130.554 78.2776 131.401 79.4051 132.345 80.449C132.185 81.0516 132.004 81.6637 131.802 82.2851C130.145 83.4362 116.594 92.4754 101.182 90.3004C84.7328 87.977 75.3275 160.008 75.3275 160.008C74.7178 164.128 74.4208 168.287 74.4391 172.451C74.3686 183.044 76.5895 196.907 88.9631 194.866L95.5412 192.698V228.325C95.5412 228.325 96.4789 238.085 93.1934 244.567C89.9078 251.05 103.536 248.748 103.536 248.748C103.536 248.748 104.058 249.292 105.017 250.217L104.714 251.071L105.116 251.481C103.323 257.619 100.906 263.556 97.9031 269.199L98.2908 269.397C98.0441 269.87 97.9031 270.103 97.9031 270.103C97.9031 270.103 102.965 272.695 109.931 276.035C115.529 294.989 127.783 338.886 123.75 347.247L123.863 347.488C124.617 349.055 128.833 358.299 127.98 366.767C127.212 374.337 137.675 408.735 141.581 421.228L139.734 421.602L146.312 445.302L144.901 460.64C144.901 460.64 136.913 482.017 155.71 477.836C174.506 473.655 169.338 456.46 169.338 456.46L169.811 421.602C169.811 421.602 167.999 420.592 165.764 419.625C164.227 415.465 160.878 405.635 160.878 398.835C160.878 390.007 154.765 351.894 154.765 351.894V351.816V351.668V351.626L154.73 351.117V351.033C154.73 350.559 154.652 349.91 154.596 349.119V349.076C153.891 338.773 151.776 303.767 153.32 285.519C154.678 284.592 156.09 283.748 157.55 282.991C162.126 294.573 173.921 325.864 173.167 338.992C172.229 355.234 172.934 342.481 173.167 340.404C173.237 339.762 173.287 340.539 173.308 342.283C173.308 342.601 173.308 342.954 173.308 343.328C173.308 343.702 173.308 344.119 173.308 344.55C173.308 344.981 173.308 345.447 173.308 345.962C173.308 346.207 173.308 346.456 173.308 346.711C173.308 347.219 173.308 347.751 173.308 348.307C173.308 348.584 173.308 348.867 173.308 349.154C173.308 350.567 173.308 352.134 173.258 353.766C173.258 354.09 173.258 354.42 173.258 354.754C173.258 355.75 173.258 356.767 173.209 357.798C173.209 359.21 173.153 360.58 173.125 362C173.054 365.178 172.962 368.391 172.85 371.399C172.85 371.733 172.838 372.065 172.814 372.395C172.791 373.054 172.765 373.699 172.737 374.33C172.709 374.961 172.68 375.577 172.652 376.18C172.624 376.778 172.593 377.359 172.56 377.924C172.525 378.588 172.483 379.224 172.448 379.831L169.895 379.464L169.353 385.339C168.497 394.668 169.701 404.07 172.878 412.881C173.752 415.296 174.429 417.294 174.577 418.008C175.049 420.331 174.577 437.075 174.577 437.075C174.577 437.075 177.397 458.917 190.56 454.729C196.483 452.844 199.359 447.11 200.734 441.361C202.26 434.698 201.691 427.725 199.105 421.397C197.237 416.694 195.326 410.098 196.673 405C199.021 396.172 199.021 383.623 199.021 383.623L197.569 383.418C197.93 382.729 198.258 382.022 198.549 381.3C198.549 381.3 198.076 349.232 202.306 345.051C204.633 342.749 204.422 337.22 203.717 332.7C202.709 326.159 202.473 319.523 203.011 312.927C203.301 309.53 203.717 306.571 204.203 305.519C205.444 303.061 206.685 278.288 201.192 266.368L202.321 266.014L202.144 265.139L202.321 265.082C203.149 267.297 204.09 269.468 205.141 271.586C205.418 271.804 205.737 271.963 206.078 272.052C221.3 269.376 221.914 255.146 221.068 247.378C221.709 247.689 222.062 247.887 222.062 247.887L223.472 227.407C224.917 224.137 225.453 219.964 225.418 215.451C225.481 199.322 217.754 178.164 217.754 178.164ZM200.974 236.376C199.93 227.456 198.485 219.06 198.485 219.06L191.435 193.962V184.824L202.617 226.63L200.974 236.376Z" fill="url(#paint0_linear)"/>
</g>
<path d="M169.274 373.468L168.752 379.21C167.929 388.332 169.096 397.525 172.172 406.151C173.011 408.516 173.666 410.466 173.807 411.165C174.259 413.439 173.807 429.787 173.807 429.787C173.807 429.787 176.529 451.135 189.227 447.046C194.938 445.21 197.687 439.596 199.041 433.982C200.509 427.47 199.958 420.666 197.462 414.477C195.657 409.879 193.81 403.418 195.114 398.453C197.384 389.824 197.384 377.564 197.384 377.564L169.274 373.468Z" fill="#5A5773"/>
<path d="M155.672 274.912C155.672 274.912 173.354 318.061 172.445 333.95C171.535 349.839 172.219 337.354 172.445 335.313C172.847 331.676 172.445 374.859 171.084 379.803C171.084 379.803 189.676 393.425 196.931 375.262C196.931 375.262 196.48 343.928 200.555 339.839C202.797 337.594 202.579 332.184 201.916 327.771C200.938 321.386 200.701 314.91 201.211 308.471C201.486 305.151 201.867 302.228 202.36 301.232C203.721 298.506 205.082 267.625 196.917 258.995L155.672 274.912Z" fill="#605D82"/>
<path opacity="0.1" d="M173.355 379.824C174.716 374.831 175.118 331.676 174.716 335.334C174.49 337.375 173.806 349.867 174.716 333.971C175.625 318.075 157.943 274.934 157.943 274.934L197.503 259.694C197.32 259.461 197.129 259.242 196.939 259.037L155.68 274.934C155.68 274.934 173.362 318.082 172.453 333.971C171.543 349.86 172.227 337.375 172.453 335.334C172.855 331.697 172.453 374.881 171.092 379.824C171.092 379.824 178.516 385.262 185.813 384.683C179.32 384.195 173.355 379.824 173.355 379.824Z" fill="black"/>
<path d="M140.254 414.794L146.599 437.957L145.239 452.943C145.239 452.943 137.532 473.832 155.666 469.743C173.8 465.654 168.815 448.854 168.815 448.854L169.267 414.794C169.267 414.794 162.012 410.706 158.839 411.165C155.666 411.624 140.254 414.794 140.254 414.794Z" fill="#5A5773"/>
<path d="M108.973 264.016C108.973 264.016 129.828 331.683 124.843 342.128C124.843 342.128 129.828 352.12 128.925 361.195C128.023 370.269 143.435 418.869 143.435 418.869L166.11 414.78C166.11 414.78 160.667 401.158 160.667 392.528C160.667 383.899 154.772 346.626 154.772 346.626C154.772 346.626 149.788 278.5 155.682 271.233L108.973 264.016Z" fill="#605D82"/>
<g opacity="0.1">
<path opacity="0.1" d="M153.921 276.77C150.163 292.193 154.316 348.949 154.316 348.949C154.316 348.949 160.21 386.187 160.21 394.852C160.21 401.44 163.376 410.932 164.878 415.056L166.104 414.837C166.104 414.837 160.662 401.214 160.662 392.585C160.662 383.955 154.767 346.683 154.767 346.683C154.767 346.683 150.974 294.813 153.921 276.77Z" fill="black"/>
<path opacity="0.1" d="M124.844 342.128L124.957 342.361C124.992 342.128 125.027 341.881 125.048 341.655C124.988 341.816 124.92 341.974 124.844 342.128V342.128Z" fill="black"/>
<path opacity="0.1" d="M154.653 273.465C154.859 272.681 155.205 271.942 155.675 271.283L108.973 264.016C108.973 264.016 109.248 264.899 109.72 266.474L154.653 273.465Z" fill="black"/>
</g>
<path d="M217.788 239.49C217.788 239.49 224.592 264.913 204.188 268.557C203.857 268.471 203.547 268.317 203.278 268.105C203.278 268.105 191.49 244.942 200.557 235.86L217.788 239.49Z" fill="#FAC3CA"/>
<path d="M134.361 70.5625C134.361 70.5625 135.722 89.6296 120.761 98.7183C105.8 107.807 152.488 132.778 152.488 132.778L176.974 93.7185C176.974 93.7185 166.554 95.0673 160.208 76.9182L134.361 70.5625Z" fill="#FAC3CA"/>
<path opacity="0.1" d="M124.382 100.067C124.382 100.067 147.508 148.208 168.363 102.793L200.556 262.646C200.556 262.646 150.674 278.09 150.229 285.357C149.785 292.624 99.9102 266.742 99.9102 266.742C99.9102 266.742 110.789 246.757 108.075 234.497C105.36 222.238 124.382 100.067 124.382 100.067Z" fill="black"/>
<path d="M124.382 99.156C124.382 99.156 147.508 147.297 168.363 101.882L200.556 261.742C200.556 261.742 150.674 277.186 150.229 284.453C149.785 291.72 99.9102 265.831 99.9102 265.831C99.9102 265.831 110.789 245.846 108.075 233.586C105.36 221.327 124.382 99.156 124.382 99.156Z" fill="#E1E7EF"/>
<path d="M147.06 427.513C147.06 427.513 141.166 414.343 154.766 414.343C168.366 414.343 166.103 426.15 166.103 426.15L147.06 427.513Z" fill="#5A5773"/>
<path d="M177.892 393.446C177.892 393.446 172.449 379.365 186.056 378.913C199.663 378.461 192.86 391.624 192.86 391.624L177.892 393.446Z" fill="#5A5773"/>
<path opacity="0.1" d="M166.328 88.9233C166.328 88.9233 180.154 95.9852 185.146 95.0531C190.138 94.1209 203.28 102.772 202.377 120.031L210.57 145.779C213.847 156.103 215.512 166.872 215.505 177.705V177.705C215.505 177.705 227.294 210.402 220.948 224.935L219.587 244.921C219.587 244.921 209.16 239.017 198.274 240.832L201.016 224.512L188.749 178.179L168.345 128.675L166.328 88.9233Z" fill="black"/>
<path d="M166.328 88.0264C166.328 88.0264 180.154 95.0883 185.146 94.1561C190.138 93.2239 203.28 101.875 202.377 119.134L210.57 144.882C213.847 155.206 215.512 165.975 215.505 176.809V176.809C215.505 176.809 227.294 209.505 220.948 224.038L219.587 244.024C219.587 244.024 209.16 238.12 198.274 239.935L200.995 223.586L188.749 177.268L168.366 127.764L166.328 88.0264Z" fill="#67647E"/>
<path opacity="0.1" d="M189.228 143.208V194.527L196.032 219.053C196.032 219.053 200.565 245.846 199.204 254.023C197.844 262.201 176.079 264.016 170.185 257.201C164.291 250.387 167.463 192.232 167.463 192.232L166.328 107.101L167.238 104.375L189.228 143.208Z" fill="black"/>
<path d="M190.158 140.941V192.26L196.961 216.786C196.961 216.786 201.495 243.579 200.134 251.757C198.773 259.934 177.009 261.749 171.114 254.935C165.22 248.12 168.393 189.965 168.393 189.965L167.258 104.813L190.158 140.941Z" fill="#67647E"/>
<path opacity="0.1" d="M98.7695 183.63L113.279 228.827L106.476 248.127C106.476 248.127 138.668 282.186 159.072 265.838C159.072 265.838 161.342 196.349 156.802 180.001C152.261 163.652 130.504 108.676 130.504 108.676L125.998 94.1633L101.97 107.786L98.7695 183.63Z" fill="black"/>
<path d="M97.6332 181.356V225.846C97.6332 225.846 98.5427 235.387 95.363 241.743C92.1832 248.098 105.339 245.832 105.339 245.832C105.339 245.832 137.532 279.891 157.936 263.543C157.936 263.543 160.206 194.054 155.666 177.705C151.125 161.357 129.367 106.38 129.367 106.38L124.834 91.8469L100.806 105.469L97.6332 181.356Z" fill="#67647E"/>
<path opacity="0.1" d="M132.773 83.9448C132.773 83.9448 118.947 94.1634 103.077 91.8895C87.2059 89.6155 78.139 160.016 78.139 160.016C78.139 160.016 72.2448 196.349 91.2881 193.171L133.457 179.09C133.457 179.09 124.39 169.549 125.751 157.29L105.34 165.46L106.256 126.408L132.773 83.9448Z" fill="black"/>
<path opacity="0.1" d="M79.0413 159.105C79.0413 159.105 73.1472 195.438 92.1905 192.26L134.359 178.179C134.359 178.179 125.292 168.645 126.653 156.379L106.256 164.556L79.0413 159.105Z" fill="black"/>
<path d="M125.652 161.166C125.652 161.166 139.803 142.53 150.223 151.478C160.644 160.425 129.389 176.823 129.389 176.823L125.652 161.166Z" fill="#FAC3CA"/>
<path d="M132.773 83.0337C132.773 83.0337 118.947 93.2523 103.077 90.9783C87.2059 88.7044 78.139 159.104 78.139 159.104C78.139 159.104 72.2448 195.438 91.2881 192.26L133.457 178.179C133.457 178.179 124.39 168.638 125.751 156.379L105.34 164.556L106.256 125.497L129.382 106.43L132.773 83.0337Z" fill="#67647E"/>
<path opacity="0.1" d="M160.659 77.8081L134.812 71.4524C134.812 71.4524 136.158 72.9778 134.586 78.9451C138.746 83.726 143.857 90.0746 150.682 90.0746C155.566 90.0838 160.321 88.5052 164.233 85.5762C162.773 83.1193 161.575 80.5157 160.659 77.8081Z" fill="black"/>
<path d="M150.229 89.1706C162.752 89.1706 172.903 79.0026 172.903 66.4596C172.903 53.9166 162.752 43.7485 150.229 43.7485C137.706 43.7485 127.555 53.9166 127.555 66.4596C127.555 79.0026 137.706 89.1706 150.229 89.1706Z" fill="#FAC3CA"/>
<path opacity="0.1" d="M158.825 56.601C164.085 55.7041 169.867 53.3666 171.629 48.3244C172.757 45.0972 171.897 41.425 170.057 38.5508C168.217 35.6766 165.509 33.4662 162.717 31.4889C158.184 28.2969 153.185 25.5569 147.728 24.5965C146.787 24.3712 145.806 24.3712 144.866 24.5965C144.047 24.9319 143.269 25.3583 142.546 25.8676C138.816 28.0215 134.177 27.0893 129.855 26.8633C125.533 26.6374 120.351 27.8591 118.99 31.9479C118.567 33.212 118.596 34.5749 118.285 35.8743C117.58 39.0522 115.19 41.5238 113.35 44.1721C111.51 46.8203 110.093 50.4006 111.644 53.2537C112.173 54.2211 113.054 55.1109 113.054 56.2126C112.918 56.9956 112.681 57.7576 112.349 58.4795C111.707 60.824 113.576 63.1897 115.733 64.3055C117.89 65.4213 120.372 65.7673 122.572 66.8054C124.631 67.8231 126.355 69.4116 127.538 71.3821C128.722 73.3526 129.316 75.6222 129.249 77.9208C131.251 78.1539 133.585 78.2739 134.938 76.7768C135.545 76.1059 135.841 75.2091 136.391 74.4958C137.096 73.5637 138.196 73.0128 139.098 72.2643C143.843 68.359 140.473 62.9638 143.159 58.7549C144.569 56.5869 146.811 57.2507 149.082 57.286C152.344 57.3624 155.606 57.1331 158.825 56.601V56.601Z" fill="black"/>
<path d="M158.372 56.1491C163.632 55.2522 169.413 52.9147 171.176 47.8725C172.304 44.6453 171.444 40.9731 169.604 38.0989C167.764 35.2247 165.056 33.0143 162.264 31.037C157.731 27.845 152.732 25.105 147.275 24.1446C146.334 23.9193 145.353 23.9193 144.412 24.1446C143.594 24.48 142.816 24.9064 142.093 25.4157C138.363 27.5696 133.724 26.6374 129.402 26.4114C125.08 26.1855 119.898 27.4072 118.537 31.496C118.114 32.7601 118.142 34.123 117.832 35.4224C117.127 38.6003 114.737 41.0719 112.897 43.7202C111.057 46.3684 109.64 49.9488 111.191 52.8018C111.719 53.7692 112.601 54.659 112.601 55.7607C112.465 56.5437 112.228 57.3057 111.896 58.0276C111.254 60.3721 113.122 62.7378 115.28 63.8536C117.437 64.9694 119.919 65.3154 122.119 66.3535C124.186 67.3701 125.917 68.9618 127.105 70.9381C128.293 72.9143 128.887 75.1915 128.817 77.4972C130.819 77.7302 133.153 77.8503 134.507 76.3532C135.113 75.6823 135.409 74.7854 135.959 74.0722C136.664 73.14 137.764 72.5892 138.666 71.8406C143.411 67.9354 140.041 62.5401 142.727 58.3312C144.137 56.1632 146.38 56.827 148.65 56.8623C151.906 56.9281 155.161 56.6893 158.372 56.1491Z" fill="#4A4347"/>
<path opacity="0.1" d="M185.82 132.538C185.82 132.538 190.805 158.426 188.542 168.419C187.159 174.232 187.364 180.311 189.134 186.017" fill="black"/>
<path opacity="0.1" d="M105.24 143.434C105.24 143.434 103.069 160.693 106.686 164.323Z" fill="black"/>
<path d="M231.847 356.131C232.127 356.131 232.396 356.02 232.594 355.821C232.793 355.622 232.904 355.353 232.904 355.072C232.904 354.791 232.793 354.522 232.594 354.323C232.396 354.124 232.127 354.013 231.847 354.013C231.566 354.013 231.297 354.124 231.099 354.323C230.9 354.522 230.789 354.791 230.789 355.072C230.789 355.353 230.9 355.622 231.099 355.821C231.297 356.02 231.566 356.131 231.847 356.131Z" fill="black"/>
<g opacity="0.5">
<path opacity="0.5" d="M557.486 232.725V232.139L365.121 83.9802C365 83.8901 364.853 83.8416 364.702 83.8416C364.551 83.8416 364.404 83.8901 364.282 83.9802L171.91 232.139V461.792H172.277V462.159H557.86V232.506L557.486 232.725Z" fill="url(#paint1_linear)"/>
</g>
<path d="M550.847 455.386H178.582V233.643L364.714 90.2864L550.847 233.643V455.386Z" fill="white"/>
<path d="M537.449 442.244H191.977V236.46L364.713 103.421L537.449 236.46V442.244Z" fill="#E0E0E0"/>
<path d="M423.316 100.347L212.578 155.683L282.843 424.144L493.582 368.807L423.316 100.347Z" fill="#2091F9"/>
<path d="M474.699 141.132H256.84V418.665H474.699V141.132Z" fill="#F5F5F5"/>
<path opacity="0.05" d="M180.344 233.996L366.476 344.868L180.344 455.739V233.996Z" fill="black"/>
<path d="M178.934 233.996L365.066 344.868L178.934 455.739V233.996Z" fill="white"/>
<path opacity="0.05" d="M549.789 233.996L363.656 344.868L549.789 455.739V233.996Z" fill="black"/>
<path d="M551.199 233.996L365.066 344.868L551.199 455.739V233.996Z" fill="white"/>
<path opacity="0.05" d="M178.934 452.208L365.066 306.733L551.198 452.208H178.934Z" fill="black"/>
<path d="M178.934 455.739L365.066 310.264L551.198 455.739H178.934Z" fill="white"/>
<path d="M216.758 472.582C216.758 472.582 207.409 440.804 218.514 417.4C223.232 407.618 224.654 396.566 222.568 385.904C221.538 380.852 220.049 375.904 218.119 371.124" stroke="#535461" stroke-width="2" stroke-miterlimit="10"/>
<path d="M225.023 356.336C225.023 360.234 217.972 371.526 217.972 371.526C217.972 371.526 210.922 360.227 210.922 356.336C210.922 354.463 211.665 352.667 212.987 351.343C214.309 350.018 216.102 349.274 217.972 349.274C219.842 349.274 221.636 350.018 222.958 351.343C224.28 352.667 225.023 354.463 225.023 356.336Z" fill="#6C63FF"/>
<path d="M236.692 377.917C234.577 381.187 222.535 386.837 222.535 386.837C222.535 386.837 222.754 373.518 224.869 370.248C225.923 368.769 227.506 367.755 229.289 367.415C231.071 367.075 232.916 367.437 234.439 368.425C235.962 369.413 237.046 370.951 237.465 372.719C237.885 374.487 237.608 376.349 236.692 377.917Z" fill="#6C63FF"/>
<path d="M236.154 414.787C232.678 416.539 219.438 415.331 219.438 415.331C219.438 415.331 226.34 403.947 229.809 402.196C230.639 401.731 231.555 401.439 232.5 401.337C233.446 401.236 234.403 401.327 235.313 401.606C236.222 401.884 237.067 402.345 237.794 402.958C238.522 403.572 239.117 404.328 239.546 405.178C239.974 406.029 240.227 406.958 240.287 407.909C240.348 408.86 240.216 409.813 239.899 410.711C239.582 411.61 239.087 412.435 238.443 413.136C237.8 413.838 237.021 414.402 236.154 414.795V414.787Z" fill="#6C63FF"/>
<path d="M229.499 442.604C226.368 444.921 213.113 445.966 213.113 445.966C213.113 445.966 217.992 433.579 221.123 431.263C222.629 430.256 224.464 429.869 226.248 430.181C228.031 430.492 229.627 431.48 230.704 432.938C231.781 434.396 232.256 436.213 232.032 438.012C231.807 439.812 230.9 441.456 229.499 442.604V442.604Z" fill="#6C63FF"/>
<path d="M207.722 387.585C210.542 390.297 223.508 393.114 223.508 393.114C223.508 393.114 220.328 380.184 217.536 377.472C216.178 376.27 214.41 375.638 212.599 375.707C210.788 375.776 209.073 376.541 207.81 377.843C206.547 379.145 205.833 380.885 205.817 382.7C205.8 384.515 206.483 386.267 207.722 387.592V387.585Z" fill="#6C63FF"/>
<path d="M200.346 420.218C203.822 421.969 217.063 420.762 217.063 420.762C217.063 420.762 210.161 409.378 206.692 407.627C205.035 406.877 203.154 406.797 201.44 407.404C199.726 408.01 198.313 409.256 197.494 410.881C196.675 412.507 196.515 414.386 197.046 416.127C197.578 417.868 198.76 419.336 200.346 420.225V420.218Z" fill="#6C63FF"/>
<path d="M197.524 452.915C200.655 455.231 213.91 456.276 213.91 456.276C213.91 456.276 209.031 443.89 205.9 441.573C205.161 440.968 204.307 440.519 203.39 440.254C202.472 439.99 201.511 439.914 200.564 440.033C199.616 440.151 198.703 440.461 197.879 440.944C197.054 441.426 196.337 442.072 195.769 442.84C195.201 443.609 194.795 444.485 194.576 445.416C194.356 446.347 194.328 447.312 194.492 448.254C194.656 449.196 195.009 450.095 195.531 450.896C196.052 451.697 196.73 452.384 197.524 452.915V452.915Z" fill="#6C63FF"/>
<path opacity="0.5" d="M356.957 153.844H269.531V160.905H356.957V153.844Z" fill="#6C63FF"/>
<path opacity="0.5" d="M458.484 182.091H269.531V189.153H458.484V182.091Z" fill="#6C63FF"/>
<path opacity="0.5" d="M458.484 200.452H269.531V207.514H458.484V200.452Z" fill="#6C63FF"/>
<path opacity="0.4" d="M458.484 218.813H269.531V225.875H458.484V218.813Z" fill="#6C63FF"/>
<path opacity="0.4" d="M458.484 237.174H269.531V244.236H458.484V237.174Z" fill="#6C63FF"/>
<path opacity="0.3" d="M377.403 255.535H269.531V262.597H377.403V255.535Z" fill="#6C63FF"/>
<path opacity="0.3" d="M416.886 273.896H269.531V280.957H416.886V273.896Z" fill="#6C63FF"/>
</g>
<defs>
<linearGradient id="paint0_linear" x1="74.4461" y1="250.118" x2="225.34" y2="250.118" gradientUnits="userSpaceOnUse">
<stop stop-color="#808080" stop-opacity="0.25"/>
<stop offset="0.54" stop-color="#808080" stop-opacity="0.12"/>
<stop offset="1" stop-color="#808080" stop-opacity="0.1"/>
</linearGradient>
<linearGradient id="paint1_linear" x1="245956" y1="280247" x2="245956" y2="77563.2" gradientUnits="userSpaceOnUse">
<stop stop-color="#808080" stop-opacity="0.25"/>
<stop offset="0.54" stop-color="#808080" stop-opacity="0.12"/>
<stop offset="1" stop-color="#808080" stop-opacity="0.1"/>
</linearGradient>
<clipPath id="clip0">
<rect width="677" height="514" fill="white" transform="translate(0.5)"/>
</clipPath>
</defs>
</svg>
