<svg width="32" height="40" viewBox="0 0 32 40" fill="none" xmlns="http://www.w3.org/2000/svg">
<path d="M14.8898 38.8103C15.2142 39.042 15.6029 39.1665 16.0015 39.1665C16.4001 39.1665 16.7887 39.042 17.1131 38.8103C17.6958 38.3982 31.3904 28.5102 31.3348 16.1668C31.3348 7.71241 24.4559 0.833496 16.0015 0.833496C7.54705 0.833496 0.668137 7.71241 0.668137 16.1572C0.612554 28.5102 14.3071 38.3982 14.8898 38.8103ZM16.0015 4.66683C22.3437 4.66683 27.5015 9.82458 27.5015 16.1764C27.5417 24.6826 19.0911 32.3205 16.0015 34.8256C12.9137 32.3186 4.46122 24.6787 4.50147 16.1668C4.50147 9.82458 9.65922 4.66683 16.0015 4.66683Z" fill="white"/>
</svg>
