<svg width="26" height="32" viewBox="0 0 26 32" fill="none" xmlns="http://www.w3.org/2000/svg">
<path d="M11.7485 31.4459C12.0164 31.6373 12.3375 31.7401 12.6668 31.7401C12.9961 31.7401 13.3172 31.6373 13.5851 31.4459C14.0665 31.1055 25.3794 22.9371 25.3335 12.7404C25.3335 5.75631 19.6509 0.0737305 12.6668 0.0737305C5.68272 0.0737305 0.000139393 5.75631 0.000139393 12.7325C-0.0457773 22.9371 11.2671 31.1055 11.7485 31.4459ZM12.6668 3.2404C17.9061 3.2404 22.1668 7.50115 22.1668 12.7483C22.2001 19.7751 15.2191 26.0847 12.6668 28.1541C10.1161 26.0831 3.13356 19.772 3.16681 12.7404C3.16681 7.50115 7.42756 3.2404 12.6668 3.2404Z" fill="#2091F9"/>
</svg>
